<mxfile host="app.diagrams.net" modified="2024-04-11T09:28:11.613Z" agent="Mozilla/5.0 (Windows NT 10.0; Win64; x64) AppleWebKit/537.36 (KHTML, like Gecko) Chrome/123.0.0.0 Safari/537.36" etag="lxZ0WGac4XVP8UvuqNaI" version="23.0.2" type="device">
  <diagram id="C5RBs43oDa-KdzZeNtuy" name="Page-1">
    <mxGraphModel dx="1432" dy="841" grid="1" gridSize="10" guides="1" tooltips="1" connect="1" arrows="1" fold="1" page="1" pageScale="1" pageWidth="1000000" pageHeight="1000000" math="0" shadow="0">
      <root>
        <mxCell id="WIyWlLk6GJQsqaUBKTNV-0" />
        <mxCell id="WIyWlLk6GJQsqaUBKTNV-1" parent="WIyWlLk6GJQsqaUBKTNV-0" />
        <mxCell id="iod5oRA8yy1l8cYBFvde-9" value="" style="edgeStyle=orthogonalEdgeStyle;rounded=0;orthogonalLoop=1;jettySize=auto;html=1;" edge="1" parent="WIyWlLk6GJQsqaUBKTNV-1" source="iod5oRA8yy1l8cYBFvde-10" target="iod5oRA8yy1l8cYBFvde-15">
          <mxGeometry relative="1" as="geometry" />
        </mxCell>
        <mxCell id="iod5oRA8yy1l8cYBFvde-10" value="保存提交校验" style="rounded=0;whiteSpace=wrap;html=1;" vertex="1" parent="WIyWlLk6GJQsqaUBKTNV-1">
          <mxGeometry x="958" y="218" width="120" height="60" as="geometry" />
        </mxCell>
        <mxCell id="iod5oRA8yy1l8cYBFvde-17" style="edgeStyle=orthogonalEdgeStyle;rounded=0;orthogonalLoop=1;jettySize=auto;html=1;" edge="1" parent="WIyWlLk6GJQsqaUBKTNV-1" source="iod5oRA8yy1l8cYBFvde-11" target="iod5oRA8yy1l8cYBFvde-15">
          <mxGeometry relative="1" as="geometry" />
        </mxCell>
        <mxCell id="iod5oRA8yy1l8cYBFvde-11" value="编辑提交校验" style="rounded=0;whiteSpace=wrap;html=1;" vertex="1" parent="WIyWlLk6GJQsqaUBKTNV-1">
          <mxGeometry x="958" y="338" width="120" height="60" as="geometry" />
        </mxCell>
        <mxCell id="iod5oRA8yy1l8cYBFvde-13" value="唯一性校验方法checkVendorScore" style="rounded=0;whiteSpace=wrap;html=1;fillColor=#f8cecc;strokeColor=#b85450;" vertex="1" parent="WIyWlLk6GJQsqaUBKTNV-1">
          <mxGeometry x="808" y="218" width="110" height="310" as="geometry" />
        </mxCell>
        <mxCell id="iod5oRA8yy1l8cYBFvde-14" value="" style="edgeStyle=orthogonalEdgeStyle;rounded=0;orthogonalLoop=1;jettySize=auto;html=1;" edge="1" parent="WIyWlLk6GJQsqaUBKTNV-1" source="iod5oRA8yy1l8cYBFvde-15" target="iod5oRA8yy1l8cYBFvde-16">
          <mxGeometry relative="1" as="geometry" />
        </mxCell>
        <mxCell id="iod5oRA8yy1l8cYBFvde-15" value="保存主单" style="whiteSpace=wrap;html=1;rounded=0;" vertex="1" parent="WIyWlLk6GJQsqaUBKTNV-1">
          <mxGeometry x="1158" y="218" width="120" height="60" as="geometry" />
        </mxCell>
        <mxCell id="iod5oRA8yy1l8cYBFvde-19" value="" style="edgeStyle=orthogonalEdgeStyle;rounded=0;orthogonalLoop=1;jettySize=auto;html=1;" edge="1" parent="WIyWlLk6GJQsqaUBKTNV-1" source="iod5oRA8yy1l8cYBFvde-16" target="iod5oRA8yy1l8cYBFvde-18">
          <mxGeometry relative="1" as="geometry" />
        </mxCell>
        <mxCell id="iod5oRA8yy1l8cYBFvde-29" style="edgeStyle=orthogonalEdgeStyle;rounded=0;orthogonalLoop=1;jettySize=auto;html=1;entryX=0.5;entryY=0;entryDx=0;entryDy=0;dashed=1;" edge="1" parent="WIyWlLk6GJQsqaUBKTNV-1" source="iod5oRA8yy1l8cYBFvde-16" target="iod5oRA8yy1l8cYBFvde-13">
          <mxGeometry relative="1" as="geometry">
            <Array as="points">
              <mxPoint x="1418" y="198" />
              <mxPoint x="863" y="198" />
            </Array>
          </mxGeometry>
        </mxCell>
        <mxCell id="iod5oRA8yy1l8cYBFvde-30" value="前置" style="edgeLabel;html=1;align=center;verticalAlign=middle;resizable=0;points=[];" vertex="1" connectable="0" parent="iod5oRA8yy1l8cYBFvde-29">
          <mxGeometry x="0.0756" y="-4" relative="1" as="geometry">
            <mxPoint x="1" y="-2" as="offset" />
          </mxGeometry>
        </mxCell>
        <mxCell id="iod5oRA8yy1l8cYBFvde-16" value="生成考核品类" style="whiteSpace=wrap;html=1;rounded=0;fillColor=#f8cecc;strokeColor=#b85450;" vertex="1" parent="WIyWlLk6GJQsqaUBKTNV-1">
          <mxGeometry x="1358" y="218" width="120" height="60" as="geometry" />
        </mxCell>
        <mxCell id="iod5oRA8yy1l8cYBFvde-18" value="保存明细" style="whiteSpace=wrap;html=1;rounded=0;" vertex="1" parent="WIyWlLk6GJQsqaUBKTNV-1">
          <mxGeometry x="1558" y="218" width="120" height="60" as="geometry" />
        </mxCell>
        <mxCell id="iod5oRA8yy1l8cYBFvde-20" value="保存提交" style="rounded=0;whiteSpace=wrap;html=1;" vertex="1" parent="WIyWlLk6GJQsqaUBKTNV-1">
          <mxGeometry x="590" y="218" width="120" height="60" as="geometry" />
        </mxCell>
        <mxCell id="iod5oRA8yy1l8cYBFvde-24" style="edgeStyle=orthogonalEdgeStyle;rounded=0;orthogonalLoop=1;jettySize=auto;html=1;" edge="1" parent="WIyWlLk6GJQsqaUBKTNV-1" source="iod5oRA8yy1l8cYBFvde-21">
          <mxGeometry relative="1" as="geometry">
            <mxPoint x="800" y="368" as="targetPoint" />
          </mxGeometry>
        </mxCell>
        <mxCell id="iod5oRA8yy1l8cYBFvde-21" value="编辑提交" style="rounded=0;whiteSpace=wrap;html=1;" vertex="1" parent="WIyWlLk6GJQsqaUBKTNV-1">
          <mxGeometry x="590" y="338" width="120" height="60" as="geometry" />
        </mxCell>
        <mxCell id="iod5oRA8yy1l8cYBFvde-22" style="edgeStyle=orthogonalEdgeStyle;rounded=0;orthogonalLoop=1;jettySize=auto;html=1;entryX=0.018;entryY=0.097;entryDx=0;entryDy=0;entryPerimeter=0;" edge="1" parent="WIyWlLk6GJQsqaUBKTNV-1" source="iod5oRA8yy1l8cYBFvde-20" target="iod5oRA8yy1l8cYBFvde-13">
          <mxGeometry relative="1" as="geometry" />
        </mxCell>
        <mxCell id="iod5oRA8yy1l8cYBFvde-25" value="前端调用" style="rounded=0;whiteSpace=wrap;html=1;" vertex="1" parent="WIyWlLk6GJQsqaUBKTNV-1">
          <mxGeometry x="590" y="468" width="120" height="60" as="geometry" />
        </mxCell>
        <mxCell id="iod5oRA8yy1l8cYBFvde-26" style="edgeStyle=orthogonalEdgeStyle;rounded=0;orthogonalLoop=1;jettySize=auto;html=1;entryX=0.027;entryY=0.906;entryDx=0;entryDy=0;entryPerimeter=0;" edge="1" parent="WIyWlLk6GJQsqaUBKTNV-1" source="iod5oRA8yy1l8cYBFvde-25" target="iod5oRA8yy1l8cYBFvde-13">
          <mxGeometry relative="1" as="geometry" />
        </mxCell>
      </root>
    </mxGraphModel>
  </diagram>
</mxfile>
